CD_DA
CD_TEXT { LANGUAGE_MAP { 0:EN }
    LANGUAGE 0 {
        TITLE "Moving Pictures"
        PERFORMER "Rush"
        DISC_ID "51096207"
}}

//Track 1
TRACK AUDIO
    CD_TEXT { LANGUAGE 0 {
        TITLE "Tom Sawyer"
        PERFORMER "Rush"
    }}
    AUDIOFILE "Rush - Moving Pictures.wav" 00:00:00 04:33:67

//Track 2
TRACK AUDIO
    CD_TEXT { LANGUAGE 0 {
        TITLE "Red Barchetta"
        PERFORMER "Rush"
    }}
    AUDIOFILE "Rush - Moving Pictures.wav" 04:33:67 06:10:15

//Track 3
TRACK AUDIO
    CD_TEXT { LANGUAGE 0 {
        TITLE "YYZ"
        PERFORMER "Rush"
    }}
    AUDIOFILE "Rush - Moving Pictures.wav" 10:44:07 04:26:05

//Track 4
TRACK AUDIO
    CD_TEXT { LANGUAGE 0 {
        TITLE "Limelight"
        PERFORMER "Rush"
    }}
    AUDIOFILE "Rush - Moving Pictures.wav" 15:10:12 04:19:50

//Track 5
TRACK AUDIO
    CD_TEXT { LANGUAGE 0 {
        TITLE "The Camera Eye"
        PERFORMER "Rush"
    }}
    AUDIOFILE "Rush - Moving Pictures.wav" 19:29:62 10:59:08

//Track 6
TRACK AUDIO
    CD_TEXT { LANGUAGE 0 {
        TITLE "Witch Hunt"
        PERFORMER "Rush"
    }}
    AUDIOFILE "Rush - Moving Pictures.wav" 30:28:70 04:46:47
    START 00:02:05

//Track 7
TRACK AUDIO
    CD_TEXT { LANGUAGE 0 {
        TITLE "Vital Signs"
        PERFORMER "Rush"
    }}
    AUDIOFILE "Rush - Moving Pictures.wav" 35:15:42
    START 00:00:73
